<?xml version="1.0" standalone="no"?>
<svg viewBox="0 0 200 200" xmlns="http://www.w3.org/2000/svg">
  <path fill="#FF1FB8" d="M42.8,-65C56.4,-57.7,69.2,-47.6,70.2,-35.1C71.1,-22.6,60.3,-7.7,58,8.3C55.7,24.4,61.8,41.6,57.4,53.6C53,65.5,38.1,72.1,24.3,70.7C10.5,69.3,-2.1,59.8,-17.9,56.9C-33.6,54.1,-52.4,57.9,-61.7,51.2C-71,44.5,-70.9,27.3,-74,10.3C-77,-6.8,-83.3,-23.9,-79.3,-37.7C-75.3,-51.6,-61.1,-62.3,-46.2,-69C-31.3,-75.7,-15.6,-78.4,-0.6,-77.5C14.5,-76.6,29.1,-72.3,42.8,-65Z" transform="translate(100 100)" />
</svg>
