<?xml version="1.0" standalone="no"?>
<svg viewBox="0 0 200 200" xmlns="http://www.w3.org/2000/svg">
  <path fill="#A969F2" d="M25.3,-45.3C31.8,-35.2,35.4,-26.5,38.4,-18.1C41.4,-9.7,43.9,-1.5,46.1,9C48.3,19.6,50.4,32.5,45,39.4C39.7,46.4,26.9,47.3,14.8,51.2C2.7,55.1,-8.7,61.8,-20.8,62.2C-32.8,62.5,-45.5,56.5,-52.1,46.5C-58.7,36.5,-59.2,22.5,-59.9,9.4C-60.6,-3.8,-61.5,-16.1,-57.6,-27C-53.7,-37.8,-45,-47.2,-34.6,-55.5C-24.2,-63.8,-12.1,-71.1,-1.4,-69C9.4,-66.9,18.8,-55.4,25.3,-45.3Z" transform="translate(100 100)" />
</svg>
