<?xml version="1.0" standalone="no"?>
<svg viewBox="0 0 200 200" xmlns="http://www.w3.org/2000/svg">
  <path fill="#8A3FFC" d="M34.9,-61.1C42,-56.4,42.3,-40.5,51.9,-28.4C61.6,-16.4,80.5,-8.2,82.1,0.9C83.6,10,67.8,20,59.3,34.1C50.9,48.2,49.9,66.4,41.2,76.4C32.6,86.5,16.3,88.4,1.1,86.5C-14.1,84.5,-28.1,78.8,-38.5,69.7C-48.8,60.6,-55.5,48.3,-62.9,36.1C-70.2,23.9,-78.2,12,-74.6,2.1C-71,-7.8,-55.7,-15.6,-44.5,-21.1C-33.3,-26.6,-26.2,-29.8,-19.5,-34.8C-12.7,-39.7,-6.4,-46.4,3.8,-52.9C13.9,-59.4,27.8,-65.8,34.9,-61.1Z" transform="translate(100 100)" />
</svg>
