<?xml version="1.0" standalone="no"?>
<svg viewBox="0 0 200 200" xmlns="http://www.w3.org/2000/svg">
  <path fill="#FF33BE" d="M41.8,-70.1C55.8,-64.3,69.9,-56.4,77.3,-44.3C84.7,-32.3,85.4,-16.2,83.3,-1.2C81.2,13.8,76.4,27.5,70.3,41.8C64.1,56,56.8,70.8,44.9,78.7C32.9,86.7,16.5,87.8,0.6,86.8C-15.3,85.8,-30.6,82.6,-42.5,74.7C-54.4,66.7,-62.9,54,-68,40.7C-73.1,27.5,-74.8,13.7,-75.6,-0.4C-76.4,-14.6,-76.2,-29.2,-71.2,-42.8C-66.3,-56.4,-56.7,-68.9,-44,-75.6C-31.4,-82.2,-15.7,-82.9,-0.9,-81.4C13.9,-79.8,27.8,-76,41.8,-70.1Z" transform="translate(100 100)" />
</svg>
